<?xml version="1.0" standalone="no"?><!DOCTYPE svg PUBLIC "-//W3C//DTD SVG 1.1//EN" "http://www.w3.org/Graphics/SVG/1.1/DTD/svg11.dtd"><svg t="1695219795671" class="icon" viewBox="0 0 1024 1024" version="1.1" xmlns="http://www.w3.org/2000/svg" p-id="11077" xmlns:xlink="http://www.w3.org/1999/xlink" width="400" height="400"><path d="M560.859429 218.331429l223.963428 229.888L223.963429 1024H0v-229.961143l560.859429-575.707428z m64-65.682286L754.102857 19.748571a64 64 0 0 1 91.721143 0l134.656 138.24a64 64 0 0 1 0 89.380572l-131.657143 135.168-223.963428-229.961143zM538.258286 896h421.449143a64 64 0 1 1 0 128H474.258286a37.522286 37.522286 0 0 1-26.477715-64l45.202286-45.275429a64 64 0 0 1 45.348572-18.724571h-0.073143z" p-id="11078"></path></svg>