<?xml version="1.0" standalone="no"?><!DOCTYPE svg PUBLIC "-//W3C//DTD SVG 1.1//EN" "http://www.w3.org/Graphics/SVG/1.1/DTD/svg11.dtd"><svg t="1695990983485" class="icon" viewBox="0 0 1024 1024" version="1.1" xmlns="http://www.w3.org/2000/svg" p-id="1318" xmlns:xlink="http://www.w3.org/1999/xlink" width="400" height="400"><path d="M612.87840658 675.94244025a46.37521027 46.37521027 0 0 1-34.92869739 15.8110971h-0.60118241a46.39925757 46.39925757 0 0 1-35.1090521-16.77298893L365.97279525 462.82327975a46.45937581 46.45937581 0 0 1 6.07194223-65.46876327 46.45937581 46.45937581 0 0 1 65.46876327 6.07194224l141.45821851 170.31497367 243.35863518-277.56591369c-80.85903269-103.04266321-187.98973622-194.66286084-273.11716394-268.12735001a54.40700713 54.40700713 0 0 0-70.81928661-0.3005912c-173.92206807 147.22956955-392.21139721 334.37765041-392.2113972 555.25206386 0 236.26468286 191.53671237 427.80139523 427.80139523 427.80139523s427.80139523-191.53671237 427.80139524-427.80139523c0-72.02165141-25.36989724-141.87904621-64.92769911-208.06922836l-263.97919147 301.01202726z" fill="#05C46D" p-id="1319"></path><path d="M876.85759805 374.93041299l-263.91907323 301.01202726a46.37521027 46.37521027 0 0 1-34.9286974 15.8110971h-0.60118239a46.39925757 46.39925757 0 0 1-35.10905211-16.77298893L365.97279525 462.82327975a46.45937581 46.45937581 0 0 1 6.07194223-65.46876327 46.45937581 46.45937581 0 0 1 65.46876327 6.07194224l141.45821851 170.31497367 243.35863518-277.56591369c-80.85903269-103.04266321-187.98973622-194.66286084-273.11716394-268.12735001a54.40700713 54.40700713 0 0 0-70.81928661-0.3005912c-173.92206807 147.22956955-392.21139721 334.37765041-392.2113972 555.25206386 0 112.0603992 43.10477802 213.96081586 113.56335519 290.2508623 58.91587512 16.59263421 121.13825343 25.49013372 185.34453366 25.49013372 229.17073055 0 431.88943555-112.96217279 555.61277329-286.28305848 0.66130064-9.73915486 1.14224655-19.53842797 1.14224657-29.45793754-0.06011824-72.08176966-25.43001548-141.87904621-64.98781735-208.06922836z" fill="#1DCE75" p-id="1320"></path><path d="M365.97279525 462.82327975a46.45937581 46.45937581 0 0 1 6.07194223-65.46876327 46.45937581 46.45937581 0 0 1 65.46876327 6.07194224l123.54298302 148.79264379c46.2309265-29.09722811 88.79464036-63.5449796 126.6691315-102.56171731l46.77199066-53.32487879c28.55616395-36.19118043 53.44511528-75.38827285 74.30614453-116.99009488-78.99536724-96.24930211-179.09223671-181.85767574-259.59055996-251.29424284a54.40700713 54.40700713 0 0 0-70.81928661-0.3005912c-173.92206807 147.22956955-392.21139721 334.37765041-392.2113972 555.25206386 0 22.12351229 1.68331072 43.8261969 4.92969566 65.04793558 34.98881562 5.53087808 70.87940486 8.47667183 107.43129473 8.47667183 99.37545058 0 193.76108725-21.28185693 278.94863322-59.45693928L365.97279525 462.82327975z" fill="#35D895" p-id="1321"></path><path d="M612.45757889 82.99623997c-21.88303933-19.23783677-43.2250145-37.63401818-63.30450663-54.94807128a54.40700713 54.40700713 0 0 0-70.81928662-0.3005912c-125.70723967 106.40928464-274.49988346 233.67959855-347.42330846 379.46633034 204.64248868-31.38172123 379.28597562-153.60210299 481.54710171-324.21766786z" fill="#48E1AA" p-id="1322"></path></svg>