<?xml version="1.0" encoding="UTF-8"?>
<svg width="315px" height="82px" viewBox="0 0 315 82" version="1.1" xmlns="http://www.w3.org/2000/svg" xmlns:xlink="http://www.w3.org/1999/xlink">
    <title>编组@1.5x</title>
    <g id="页面-1" stroke="none" stroke-width="1" fill="none" fill-rule="evenodd">
        <g id="画板" transform="translate(-242, -174)">
            <g id="编组" transform="translate(242, 174)">
                <text id="卡券充值系统" font-family="AlimamaFangYuanTiVF-Regular, Alimama FangYuanTi VF" font-size="36" font-weight="normal" fill="#000000">
                    <tspan x="99" y="54">卡券充值系统</tspan>
                </text>
                <g id="卡券" fill-rule="nonzero">
                    <polygon id="路径" fill="#202425" opacity="0.01" points="0 0 82 0 82 82 0 82"></polygon>
                    <path d="M16.9230769,8 C10.8904281,8 6,12.8353247 6,18.8 L6,32.3 C6,33.7911688 7.22260702,35 8.73076921,35 L11.4615384,35 L11.4615384,24.2 C11.4615384,21.2176623 13.9067525,18.8 16.9230769,18.8 L66.0769231,18.8 C69.0932475,18.8 71.5384616,21.2176623 71.5384616,24.2 L71.5384616,35 L74.2692308,35 C75.777393,35 77,33.7911688 77,32.3 L77,18.8 C77,12.8353247 72.1095719,8 66.0769231,8 L16.9230769,8 Z" id="路径" fill="#88ACFF"></path>
                    <path d="M41.5,41 C46.4922131,40.9998686 50.8497422,37.5929741 52.0871923,32.7225 C52.4585769,31.25125 53.6437308,30 55.1538462,30 L74.2692308,30 C75.777393,30 77,31.2312169 77,32.75 L77,63 C77,69.0751323 72.1095719,74 66.0769231,74 L16.9230769,74 C10.8904281,74 6,69.0751323 6,63 L6,32.75 C6,31.2312169 7.22260702,30 8.73076921,30 L27.8461538,30 C29.3535384,30 30.541423,31.25125 30.9128077,32.7225 C32.1502578,37.5929741 36.5077869,40.9998686 41.5,41 Z" id="路径" fill="#165DFF"></path>
                </g>
            </g>
        </g>
    </g>
</svg>