<?xml version="1.0" standalone="no"?><!DOCTYPE svg PUBLIC "-//W3C//DTD SVG 1.1//EN" "http://www.w3.org/Graphics/SVG/1.1/DTD/svg11.dtd"><svg t="1701358402296" class="icon" viewBox="0 0 1024 1024" version="1.1" xmlns="http://www.w3.org/2000/svg" p-id="1750" xmlns:xlink="http://www.w3.org/1999/xlink" width="200" height="200"><path d="M924 886.5s-23.7 41.6-79.1 41.6H179.3c-30.8 0-57.2-16.8-71.7-41.6 0 0-11.6-11.8-11.6-41.6V824h1.4c11.2-125.9 121.9-231.3 273.8-272.5-65.7-45.1-108.8-120.4-108.8-206.1 0-137.7 111.7-249.5 249.5-249.5s249.9 111.7 249.9 249.7c0 85.5-43.1 161-108.8 206.1 151.8 41 262.7 146.4 273.8 272.3h1.4v20.8c0 14.2-1.7 28.1-4.2 41.7z" fill="" p-id="1751"></path></svg>