<?xml version="1.0" standalone="no"?><!DOCTYPE svg PUBLIC "-//W3C//DTD SVG 1.1//EN" "http://www.w3.org/Graphics/SVG/1.1/DTD/svg11.dtd"><svg t="1700244238015" class="icon" viewBox="0 0 1024 1024" version="1.1" xmlns="http://www.w3.org/2000/svg" p-id="1151" xmlns:xlink="http://www.w3.org/1999/xlink" width="200" height="200"><path d="M897.3 445.6L596.1 132.1C573.9 109 544 96.2 512 96.2s-61.9 12.8-83.9 36.3L126.8 445.8c-33.7 35-35.2 70.7-25.6 92.6 3.8 8.8 19.5 37.4 59.9 41.4 1.7 0.6 3.6 0.9 5.6 0.9h29.4v229.2c0 65.1 52.9 118 118 118h99.1c10.3 0 18.8-8.5 18.8-18.8V660.9c0-17.1 13.9-30.9 30.9-30.9H562c17.1 0 30.9 13.9 30.9 30.9V909c0 10.3 8.5 18.8 18.8 18.8v-0.2h98.7c65.1 0 118.2-52.9 118.2-118V580.4h30.9c2.9 0 5.4-0.6 7.9-1.7 37.2-5.6 51.8-32.1 55.6-40.6 9.5-21.8 7.8-57.5-25.7-92.5z" fill="" p-id="1152"></path></svg>