<?xml version="1.0" standalone="no"?><!DOCTYPE svg PUBLIC "-//W3C//DTD SVG 1.1//EN" "http://www.w3.org/Graphics/SVG/1.1/DTD/svg11.dtd"><svg t="1695291019520" class="icon" viewBox="0 0 1056 1024" version="1.1" xmlns="http://www.w3.org/2000/svg" p-id="121596" xmlns:xlink="http://www.w3.org/1999/xlink" width="412.5" height="400"><path d="M1051.306667 439.660606c-4.137374-22.962424-26.272323-46.338586-49.234747-51.510303l-17.170101-3.930505c-40.339394-12.205253-76.127677-38.891313-98.881939-78.196364-22.756848-39.511919-28.135434-84.402424-18.204444-125.569293l0 0 5.378586-16.135758c6.825374-22.341818-2.06998-53.165253-20.067556-68.473535 0 0-16.134465-13.653333-61.646869-39.925657-45.511111-26.065455-65.163636-33.305859-65.163636-33.305859-22.134949-8.067879-53.165253-0.413737-69.30101 16.756364l-11.998384 12.825859c-30.616566 28.961616-71.783434 46.545455-117.294545 46.545455s-87.091717-17.790707-117.708283-46.959192l-11.584646-12.412121c-15.928889-17.170101-47.166061-24.824242-69.30101-16.756364 0 0-19.859394 7.240404-65.370505 33.305859C218.246465 82.398384 202.317576 96.051717 202.317576 96.051717c-17.997576 15.101414-26.892929 45.71798-20.066263 68.266667l4.964848 16.342626c9.722828 41.166869 4.551111 85.850505-18.204444 125.362424-22.755556 39.511919-58.957576 66.404848-99.503838 78.403232l-16.549495 3.723636c-22.755556 5.171717-45.097374 28.34101-49.234747 51.510303 0 0-3.723636 20.686869-3.723636 73.231515s3.723636 73.231515 3.723636 73.231515c4.137374 23.169293 26.272323 46.338586 49.234747 51.510303l16.135758 3.723636 0 0c40.546263 11.998384 76.955152 38.891313 99.710707 78.611394 22.755556 39.511919 28.134141 84.401131 18.204444 125.569293l0 0-4.75798 15.927596c-6.826667 22.341818 2.068687 53.165253 20.066263 68.473535 0 0 16.135758 13.654626 61.646869 39.925657 45.511111 26.272323 65.163636 33.307152 65.163636 33.307152 22.134949 8.066586 53.165253 0.412444 69.30101-16.756364l11.377778-12.205253c30.823434-29.168485 72.197172-46.959192 117.915152-46.959192 45.716687 0 87.298586 17.997576 117.915152 47.166061l0 0 11.377778 12.20396c15.927596 17.170101 47.164768 24.824242 69.30101 16.756364 0 0 19.859394-7.240404 65.371798-33.305859 45.509818-26.27103 61.44-39.925657 61.44-39.925657 17.997576-15.101414 26.892929-45.924848 20.067556-68.473535l-4.966141-16.549495c-9.722828-40.96-4.551111-85.643636 18.204444-124.94998 22.756848-39.511919 59.165737-66.611717 99.710707-78.610101l0 0 16.135758-3.723636c22.755556-5.171717 45.097374-28.34101 49.234747-51.510303 0 0 3.723636-20.686869 3.723636-73.231515C1055.030303 460.347475 1051.306667 439.660606 1051.306667 439.660606L1051.306667 439.660606M527.72202 723.276283c-116.053333 0-210.385455-94.125253-210.385455-210.385455 0-116.053333 94.125253-210.178586 210.385455-210.178586 116.053333 0 210.385455 94.125253 210.385455 210.385455C737.900606 629.15103 643.775354 723.276283 527.72202 723.276283L527.72202 723.276283M527.72202 723.276283 527.72202 723.276283z" p-id="121597"></path></svg>