<?xml version="1.0" standalone="no"?><!DOCTYPE svg PUBLIC "-//W3C//DTD SVG 1.1//EN" "http://www.w3.org/Graphics/SVG/1.1/DTD/svg11.dtd"><svg t="1695263930951" class="icon" viewBox="0 0 1024 1024" version="1.1" xmlns="http://www.w3.org/2000/svg" p-id="13358" xmlns:xlink="http://www.w3.org/1999/xlink" width="400" height="400"><path d="M819.203742 611.052308c-20.48 20.401231-42.771692 38.990769-65.063385 55.650461a30.404923 30.404923 0 0 0-12.996923 20.401231 442.958769 442.958769 0 0 1-118.980923 209.526154 478.129231 478.129231 0 0 1-91.096616 70.498461c-27.884308 16.659692-61.321846-11.145846-50.176-42.653538 18.589538-48.246154 25.993846-100.155077 25.993847-153.915077-3.702154 0-9.255385 1.851077-12.996924 1.851077-44.583385-37.100308-85.464615-76.012308-126.38523-116.854154a2477.252923 2477.252923 0 0 1-117.090462-126.070154c0-3.741538 1.851077-9.294769 1.851077-12.996923-53.917538 0-105.944615 9.255385-154.269538 25.993846-29.735385 11.106462-59.470769-22.291692-42.771693-50.09723 20.48-33.398154 42.771692-63.054769 70.656-90.860308A444.534154 444.534154 0 0 1 335.915126 282.781538c7.443692-1.851077 14.848-7.404308 20.440616-12.996923 16.738462-24.064 35.328-44.504615 55.768615-64.866461C557.099126 60.258462 759.693588 10.24 947.440049 52.893538c12.996923 3.702154 22.291692 12.996923 25.993846 25.954462 40.96 185.422769-9.255385 387.544615-154.230153 532.204308z m-81.801847-324.529231c-44.622769-44.504615-118.941538-44.504615-163.564307 0-44.622769 44.504615-44.622769 118.705231 0 163.209846 44.622769 44.504615 118.941538 44.504615 163.564307 0 46.473846-46.355692 46.473846-118.705231 0-163.209846zM322.878818 853.976615c-35.288615 35.249231-252.770462 183.611077-295.542153 140.957539-42.732308-42.653538 105.944615-259.623385 141.272615-294.872616 35.328-35.209846 98.540308-29.656615 141.272615 12.996924 42.771692 42.653538 48.324923 105.708308 12.996923 140.918153z"  p-id="13359" data-spm-anchor-id="a313x.search_index.0.i8.143f3a81azenVO" class="selected"></path></svg>