<?xml version="1.0" standalone="no"?><!DOCTYPE svg PUBLIC "-//W3C//DTD SVG 1.1//EN" "http://www.w3.org/Graphics/SVG/1.1/DTD/svg11.dtd"><svg t="1695976370168" class="icon" viewBox="0 0 1024 1024" version="1.1" xmlns="http://www.w3.org/2000/svg" p-id="9728" xmlns:xlink="http://www.w3.org/1999/xlink" width="400" height="400"><path d="M495.104 998.4c220.672 0 399.36-178.688 399.36-398.848S586.752 633.856 542.72 25.6C332.288 138.752 182.784 472.064 223.232 727.04S495.104 998.4 495.104 998.4z" fill="#FF0A0A" p-id="9729"></path><path d="M495.104 998.4c220.672 0 399.36-178.688 399.36-398.848-212.48 94.72-668.672 61.44-741.888-243.712-25.088 122.368-41.984 87.04-56.832 243.712 0 220.16 178.688 398.848 399.36 398.848z" fill="#FF480A" p-id="9730"></path><path d="M495.104 998.4c220.672 0 399.36-178.688 399.36-398.848 0-180.224-78.848-226.304-133.12-328.704-37.376 441.856-400.896 516.096-656.384 415.744C144.896 865.28 304.64 998.4 495.104 998.4z" fill="#FF810A" p-id="9731"></path></svg>