<?xml version="1.0" standalone="no"?><!DOCTYPE svg PUBLIC "-//W3C//DTD SVG 1.1//EN" "http://www.w3.org/Graphics/SVG/1.1/DTD/svg11.dtd"><svg t="1695287418770" class="icon" viewBox="0 0 1024 1024" version="1.1" xmlns="http://www.w3.org/2000/svg" p-id="11176" xmlns:xlink="http://www.w3.org/1999/xlink" width="400" height="400"><path d="M512 904.533333c-17.066667 0-29.866667-4.266667-42.666667-17.066666l-98.133333-98.133334H162.133333c-64 0-119.466667-51.2-119.466666-115.2V234.666667C42.666667 170.666667 93.866667 119.466667 162.133333 119.466667h704C930.133333 119.466667 981.333333 170.666667 981.333333 234.666667v435.2c0 64-51.2 115.2-119.466666 115.2h-209.066667L554.666667 887.466667c-12.8 8.533333-25.6 17.066667-42.666667 17.066666z m-4.266667-311.466666c-12.8 0-25.6 4.266667-34.133333 12.8-8.533333 8.533333-17.066667 21.333333-17.066667 34.133333 0 12.8 4.266667 25.6 17.066667 34.133333 8.533333 8.533333 21.333333 12.8 34.133333 12.8 12.8 0 25.6-4.266667 38.4-12.8 8.533333-8.533333 12.8-21.333333 12.8-34.133333 0-12.8-4.266667-25.6-12.8-34.133333-12.8-8.533333-25.6-12.8-38.4-12.8z m4.266667-307.2c21.333333 0 38.4 4.266667 51.2 17.066666 12.8 12.8 17.066667 29.866667 17.066667 51.2 0 17.066667-4.266667 29.866667-17.066667 42.666667l-8.533333 8.533333c-42.666667 38.4-68.266667 64-76.8 81.066667-4.266667 4.266667-4.266667 17.066667-8.533334 29.866667 0 12.8 0 21.333333 8.533334 29.866666 8.533333 8.533333 17.066667 12.8 29.866666 12.8 17.066667 0 34.133333-12.8 38.4-29.866666 0-8.533333 4.266667-17.066667 4.266667-21.333334 4.266667-12.8 12.8-21.333333 25.6-29.866666 29.866667-25.6 51.2-42.666667 55.466667-51.2 17.066667-21.333333 25.6-46.933333 25.6-81.066667 0-38.4-12.8-68.266667-38.4-93.866667-25.6-21.333333-59.733333-34.133333-102.4-34.133333-46.933333 0-85.333333 12.8-115.2 42.666667-17.066667 21.333333-29.866667 42.666667-34.133334 72.533333-4.266667 8.533333 0 21.333333 4.266667 29.866667 8.533333 8.533333 17.066667 12.8 29.866667 12.8 17.066667 0 34.133333-12.8 38.4-29.866667 4.266667-12.8 8.533333-25.6 12.8-34.133333 12.8-17.066667 34.133333-25.6 59.733333-25.6z"  p-id="11177" data-spm-anchor-id="a313x.search_index.0.i10.7ae03a81xOOPYV" class="selected"></path></svg>